<?xml version="1.0" encoding="UTF-8"?>
<svg xmlns="http://www.w3.org/2000/svg" xmlns:xlink="http://www.w3.org/1999/xlink" width="32pt" height="32pt" viewBox="0 0 32 32" version="1.1">
<g id="surface0">
<path style="fill: none; stroke-width: 0.0714286; stroke-linecap: round; stroke-linejoin: miter; stroke: rgb(0%,0%,100%); stroke-opacity: 1;stroke-miterlimit: 10; " d="M 0.23284 0.449498 C 0.213309 0.459263 0.160296 0.486049 0.115374 0.522461 " transform="matrix(28,0,0,28,2,2)"/>
<path style="fill: none; stroke-width: 0.0714286; stroke-linecap: round; stroke-linejoin: miter; stroke: rgb(0%,2.903122%,97.096878%); stroke-opacity: 1;stroke-miterlimit: 10; " d="M 0.115374 0.522461 C 0.070452 0.558733 0.0337612 0.604492 0.0115792 0.660156 " transform="matrix(28,0,0,28,2,2)"/>
<path style="fill: none; stroke-width: 0.0714286; stroke-linecap: round; stroke-linejoin: miter; stroke: rgb(0%,6.524713%,93.475287%); stroke-opacity: 1;stroke-miterlimit: 10; " d="M 0.0115792 0.660156 C -0.0106027 0.71582 -0.0182757 0.78139 0 0.837333 " transform="matrix(28,0,0,28,2,2)"/>
<path style="fill: none; stroke-width: 0.0714286; stroke-linecap: round; stroke-linejoin: miter; stroke: rgb(0%,10.252124%,89.747876%); stroke-opacity: 1;stroke-miterlimit: 10; " d="M 0 0.837333 C 0.0182757 0.893276 0.0623605 0.939593 0.117188 0.963588 " transform="matrix(28,0,0,28,2,2)"/>
<path style="fill: none; stroke-width: 0.0714286; stroke-linecap: round; stroke-linejoin: miter; stroke: rgb(0%,13.87013%,86.12987%); stroke-opacity: 1;stroke-miterlimit: 10; " d="M 0.117188 0.963588 C 0.172154 0.987584 0.237723 0.989258 0.295898 0.976562 " transform="matrix(28,0,0,28,2,2)"/>
<path style="fill: none; stroke-width: 0.0714286; stroke-linecap: round; stroke-linejoin: miter; stroke: rgb(0%,17.631764%,82.368236%); stroke-opacity: 1;stroke-miterlimit: 10; " d="M 0.295898 0.976562 C 0.354074 0.963867 0.404855 0.936942 0.444615 0.908622 " transform="matrix(28,0,0,28,2,2)"/>
<path style="fill: none; stroke-width: 0.0714286; stroke-linecap: round; stroke-linejoin: miter; stroke: rgb(0%,21.065753%,78.934247%); stroke-opacity: 1;stroke-miterlimit: 10; " d="M 0.444615 0.908622 C 0.484515 0.880301 0.513393 0.850725 0.536133 0.824358 " transform="matrix(28,0,0,28,2,2)"/>
<path style="fill: none; stroke-width: 0.0714286; stroke-linecap: round; stroke-linejoin: miter; stroke: rgb(0%,23.674696%,76.325304%); stroke-opacity: 1;stroke-miterlimit: 10; " d="M 0.536133 0.824358 C 0.558733 0.798131 0.575195 0.775112 0.588867 0.754325 " transform="matrix(28,0,0,28,2,2)"/>
<path style="fill: none; stroke-width: 0.0714286; stroke-linecap: round; stroke-linejoin: miter; stroke: rgb(0%,25.516507%,74.483493%); stroke-opacity: 1;stroke-miterlimit: 10; " d="M 0.588867 0.754325 C 0.602679 0.733677 0.613839 0.715402 0.623744 0.697963 " transform="matrix(28,0,0,28,2,2)"/>
<path style="fill: none; stroke-width: 0.0714286; stroke-linecap: round; stroke-linejoin: miter; stroke: rgb(0%,26.907768%,73.092232%); stroke-opacity: 1;stroke-miterlimit: 10; " d="M 0.623744 0.697963 C 0.63365 0.680525 0.642299 0.663783 0.650391 0.646903 " transform="matrix(28,0,0,28,2,2)"/>
<path style="fill: none; stroke-width: 0.0714286; stroke-linecap: round; stroke-linejoin: miter; stroke: rgb(0%,28.118038%,71.881962%); stroke-opacity: 1;stroke-miterlimit: 10; " d="M 0.650391 0.646903 C 0.658343 0.629883 0.665737 0.612584 0.672991 0.59389 " transform="matrix(28,0,0,28,2,2)"/>
<path style="fill: none; stroke-width: 0.0714286; stroke-linecap: round; stroke-linejoin: miter; stroke: rgb(0%,29.328308%,70.671692%); stroke-opacity: 1;stroke-miterlimit: 10; " d="M 0.672991 0.59389 C 0.680106 0.575056 0.687221 0.554967 0.694475 0.53111 " transform="matrix(28,0,0,28,2,2)"/>
<path style="fill: none; stroke-width: 0.0714286; stroke-linecap: round; stroke-linejoin: miter; stroke: rgb(0%,30.719569%,69.280431%); stroke-opacity: 1;stroke-miterlimit: 10; " d="M 0.694475 0.53111 C 0.70159 0.507394 0.709124 0.48005 0.714983 0.445871 " transform="matrix(28,0,0,28,2,2)"/>
<path style="fill: none; stroke-width: 0.0714286; stroke-linecap: round; stroke-linejoin: miter; stroke: rgb(0%,32.56138%,67.43862%); stroke-opacity: 1;stroke-miterlimit: 10; " d="M 0.714983 0.445871 C 0.720982 0.411691 0.725446 0.370536 0.722098 0.321847 " transform="matrix(28,0,0,28,2,2)"/>
<path style="fill: none; stroke-width: 0.0714286; stroke-linecap: round; stroke-linejoin: miter; stroke: rgb(0%,35.170323%,64.829677%); stroke-opacity: 1;stroke-miterlimit: 10; " d="M 0.722098 0.321847 C 0.71861 0.273158 0.70731 0.216797 0.680106 0.163783 " transform="matrix(28,0,0,28,2,2)"/>
<path style="fill: none; stroke-width: 0.0714286; stroke-linecap: round; stroke-linejoin: miter; stroke: rgb(0%,38.604312%,61.395688%); stroke-opacity: 1;stroke-miterlimit: 10; " d="M 0.680106 0.163783 C 0.653041 0.110631 0.610073 0.0609654 0.55678 0.0339007 " transform="matrix(28,0,0,28,2,2)"/>
<path style="fill: none; stroke-width: 0.0714286; stroke-linecap: round; stroke-linejoin: miter; stroke: rgb(0%,42.365946%,57.634054%); stroke-opacity: 1;stroke-miterlimit: 10; " d="M 0.55678 0.0339007 C 0.503348 0.00669643 0.439732 0.00237165 0.384766 0.0234375 " transform="matrix(28,0,0,28,2,2)"/>
<path style="fill: none; stroke-width: 0.0714286; stroke-linecap: round; stroke-linejoin: miter; stroke: rgb(0%,45.983953%,54.016047%); stroke-opacity: 1;stroke-miterlimit: 10; " d="M 0.384766 0.0234375 C 0.329799 0.0445033 0.283761 0.0910993 0.255162 0.14481 " transform="matrix(28,0,0,28,2,2)"/>
<path style="fill: none; stroke-width: 0.0714286; stroke-linecap: round; stroke-linejoin: miter; stroke: rgb(0%,49.711363%,50.288637%); stroke-opacity: 1;stroke-miterlimit: 10; " d="M 0.255162 0.14481 C 0.226562 0.198382 0.215681 0.259068 0.214565 0.31236 " transform="matrix(28,0,0,28,2,2)"/>
<path style="fill: none; stroke-width: 0.0714286; stroke-linecap: round; stroke-linejoin: miter; stroke: rgb(0%,53.332955%,46.667045%); stroke-opacity: 1;stroke-miterlimit: 10; " d="M 0.214565 0.31236 C 0.213449 0.365792 0.222377 0.411691 0.23284 0.449498 " transform="matrix(28,0,0,28,2,2)"/>
<path style="fill: none; stroke-width: 0.0714286; stroke-linecap: round; stroke-linejoin: miter; stroke: rgb(0%,56.236076%,43.763924%); stroke-opacity: 1;stroke-miterlimit: 10; " d="M 0.23284 0.449498 C 0.243304 0.487305 0.255441 0.516741 0.266881 0.541853 " transform="matrix(28,0,0,28,2,2)"/>
<path style="fill: none; stroke-width: 0.0714286; stroke-linecap: round; stroke-linejoin: miter; stroke: rgb(0%,58.302292%,41.697708%); stroke-opacity: 1;stroke-miterlimit: 10; " d="M 0.266881 0.541853 C 0.27832 0.566825 0.288923 0.587333 0.299247 0.605748 " transform="matrix(28,0,0,28,2,2)"/>
<path style="fill: none; stroke-width: 0.0714286; stroke-linecap: round; stroke-linejoin: miter; stroke: rgb(0%,59.808393%,40.191607%); stroke-opacity: 1;stroke-miterlimit: 10; " d="M 0.299247 0.605748 C 0.30957 0.624302 0.319615 0.640904 0.329939 0.656669 " transform="matrix(28,0,0,28,2,2)"/>
<path style="fill: none; stroke-width: 0.0714286; stroke-linecap: round; stroke-linejoin: miter; stroke: rgb(0%,61.055805%,38.944195%); stroke-opacity: 1;stroke-miterlimit: 10; " d="M 0.329939 0.656669 C 0.340262 0.672573 0.351004 0.68764 0.362863 0.702985 " transform="matrix(28,0,0,28,2,2)"/>
<path style="fill: none; stroke-width: 0.0714286; stroke-linecap: round; stroke-linejoin: miter; stroke: rgb(0%,62.248194%,37.751806%); stroke-opacity: 1;stroke-miterlimit: 10; " d="M 0.362863 0.702985 C 0.374721 0.718331 0.387556 0.733817 0.402623 0.750837 " transform="matrix(28,0,0,28,2,2)"/>
<path style="fill: none; stroke-width: 0.0714286; stroke-linecap: round; stroke-linejoin: miter; stroke: rgb(0%,63.554686%,36.445314%); stroke-opacity: 1;stroke-miterlimit: 10; " d="M 0.402623 0.750837 C 0.41769 0.767857 0.435128 0.786412 0.457589 0.807338 " transform="matrix(28,0,0,28,2,2)"/>
<path style="fill: none; stroke-width: 0.0714286; stroke-linecap: round; stroke-linejoin: miter; stroke: rgb(0%,65.209953%,34.790047%); stroke-opacity: 1;stroke-miterlimit: 10; " d="M 0.457589 0.807338 C 0.48019 0.828265 0.508092 0.851562 0.545619 0.874581 " transform="matrix(28,0,0,28,2,2)"/>
<path style="fill: none; stroke-width: 0.0714286; stroke-linecap: round; stroke-linejoin: miter; stroke: rgb(0%,67.53487%,32.46513%); stroke-opacity: 1;stroke-miterlimit: 10; " d="M 0.545619 0.874581 C 0.583008 0.8976 0.630301 0.920201 0.686105 0.93192 " transform="matrix(28,0,0,28,2,2)"/>
<path style="fill: none; stroke-width: 0.0714286; stroke-linecap: round; stroke-linejoin: miter; stroke: rgb(0%,70.721278%,29.278722%); stroke-opacity: 1;stroke-miterlimit: 10; " d="M 0.686105 0.93192 C 0.741908 0.943638 0.806362 0.944336 0.8637 0.924107 " transform="matrix(28,0,0,28,2,2)"/>
<path style="fill: none; stroke-width: 0.0714286; stroke-linecap: round; stroke-linejoin: miter; stroke: rgb(0%,74.453143%,25.546857%); stroke-opacity: 1;stroke-miterlimit: 10; " d="M 0.8637 0.924107 C 0.920898 0.904018 0.970982 0.863002 0.995954 0.810268 " transform="matrix(28,0,0,28,2,2)"/>
<path style="fill: none; stroke-width: 0.0714286; stroke-linecap: round; stroke-linejoin: miter; stroke: rgb(0%,78.118038%,21.881962%); stroke-opacity: 1;stroke-miterlimit: 10; " d="M 0.995954 0.810268 C 1.020926 0.757394 1.020787 0.692801 1 0.635742 " transform="matrix(28,0,0,28,2,2)"/>
<path style="fill: none; stroke-width: 0.0714286; stroke-linecap: round; stroke-linejoin: miter; stroke: rgb(0%,81.782933%,18.217067%); stroke-opacity: 1;stroke-miterlimit: 10; " d="M 1 0.635742 C 0.979213 0.578683 0.937779 0.529297 0.893276 0.493583 " transform="matrix(28,0,0,28,2,2)"/>
<path style="fill: none; stroke-width: 0.0714286; stroke-linecap: round; stroke-linejoin: miter; stroke: rgb(0%,85.514798%,14.485202%); stroke-opacity: 1;stroke-miterlimit: 10; " d="M 0.893276 0.493583 C 0.848912 0.457868 0.801479 0.435686 0.759905 0.421317 " transform="matrix(28,0,0,28,2,2)"/>
<path style="fill: none; stroke-width: 0.0714286; stroke-linecap: round; stroke-linejoin: miter; stroke: rgb(0%,88.701206%,11.298794%); stroke-opacity: 1;stroke-miterlimit: 10; " d="M 0.759905 0.421317 C 0.718192 0.406948 0.682478 0.400251 0.652065 0.396205 " transform="matrix(28,0,0,28,2,2)"/>
<path style="fill: none; stroke-width: 0.0714286; stroke-linecap: round; stroke-linejoin: miter; stroke: rgb(0%,91.026123%,8.973877%); stroke-opacity: 1;stroke-miterlimit: 10; " d="M 0.652065 0.396205 C 0.621512 0.39202 0.596261 0.390346 0.573521 0.389509 " transform="matrix(28,0,0,28,2,2)"/>
<path style="fill: none; stroke-width: 0.0714286; stroke-linecap: round; stroke-linejoin: miter; stroke: rgb(0%,92.68139%,7.31861%); stroke-opacity: 1;stroke-miterlimit: 10; " d="M 0.573521 0.389509 C 0.550642 0.388532 0.530413 0.388532 0.5113 0.38909 " transform="matrix(28,0,0,28,2,2)"/>
<path style="fill: none; stroke-width: 0.0714286; stroke-linecap: round; stroke-linejoin: miter; stroke: rgb(0%,93.987883%,6.012117%); stroke-opacity: 1;stroke-miterlimit: 10; " d="M 0.5113 0.38909 C 0.492048 0.389648 0.473772 0.390765 0.45452 0.392997 " transform="matrix(28,0,0,28,2,2)"/>
<path style="fill: none; stroke-width: 0.0714286; stroke-linecap: round; stroke-linejoin: miter; stroke: rgb(0%,95.180271%,4.819729%); stroke-opacity: 1;stroke-miterlimit: 10; " d="M 0.45452 0.392997 C 0.435407 0.395229 0.415318 0.398577 0.395787 0.401646 " transform="matrix(28,0,0,28,2,2)"/>
<path style="fill: none; stroke-width: 0.0714286; stroke-linecap: round; stroke-linejoin: miter; stroke: rgb(0%,96.427683%,3.572317%); stroke-opacity: 1;stroke-miterlimit: 10; " d="M 0.395787 0.401646 C 0.376395 0.404715 0.357561 0.407506 0.325753 0.417271 " transform="matrix(28,0,0,28,2,2)"/>
<path style="fill: none; stroke-width: 0.0714286; stroke-linecap: round; stroke-linejoin: miter; stroke: rgb(0%,97.933784%,2.066216%); stroke-opacity: 1;stroke-miterlimit: 10; " d="M 0.325753 0.417271 C 0.293945 0.426897 0.249163 0.443499 0.23284 0.449498 " transform="matrix(28,0,0,28,2,2)"/>
</g>
</svg>
